<?xml version="1.0" encoding="utf-8"?>
<!-- Generator: Adobe Illustrator 28.1.0, SVG Export Plug-In . SVG Version: 6.00 Build 0)  -->
<svg version="1.1" id="Laag_1" xmlns="http://www.w3.org/2000/svg" xmlns:xlink="http://www.w3.org/1999/xlink" x="0px" y="0px"
	 viewBox="0 0 157.6 110.3" style="enable-background:new 0 0 157.6 110.3;" xml:space="preserve">
<style type="text/css">
	.st0{fill:none;}
	.st1{fill:#154273;}
	.st2{fill:#FFFFFF;}
</style>
<g id="Laag_1_1_">
	<g>
		<rect y="-14.7" class="st0" width="275" height="125"/>
		<rect y="-14.7" class="st1" width="50" height="100"/>
	</g>
	<path class="st2" d="M25.9,62.7H25v-2.4h0.9V62.7z M29.8,52H29v-2.4h0.9V52H29.8z M13.7,47.9c-0.1,0-0.5,0-0.5,0.1s0.2,0,0.5,0.1
		c0.7,0.1,1,0.5,1.5,0.5c0.4,0,0.9-0.3,0.7-0.9c0-0.1-0.1-0.1-0.1,0c-0.1,0.3-0.4,0.5-0.8,0.5C14.5,48,14.4,47.9,13.7,47.9z
		 M8.9,50.3c0.1,0.1,0.9,1.2-0.4,1.6c-0.1,0-0.1,0.1,0,0.1c0.9,0.4,1.4-0.3,1.4-0.3c0.5,1.1-0.3,1.7-0.3,1.7
		c0.1,0.2,0.5,0.5,1.2,0.7c0.3-0.1,0.6-0.4,0.8-0.8c0,0,0.2,0.5,0,0.9c1.9,0.2,2.6-1.3,4-1.1c0,0,0.1,0,0.1-0.1c0-0.9-0.6-2.7-2.4-3
		S12,48.9,12,48.9c0.8,0,1.2,0.3,1.2,0.3c0.1-0.2-0.1-0.5-0.1-0.5c0.1-0.1,0.1-0.4,0.1-0.4c-0.9,0-1.1-0.2-1.1-0.2
		c-0.1-0.5,0.2-1.2,1.5-0.5c0.3-0.3,0.3-0.7,0.3-0.7c0.1,0,0.2-0.2,0.2-0.3c0-0.2-1-0.8-1.3-0.9c-0.1-0.3-0.5-0.8-1.7-0.6
		c-0.6,0.1-1-0.1-0.8-0.4c0-0.1-0.1-0.1-0.1,0c-0.1,0.1-0.3,0.5,0.2,0.8s0.6,0.8,0.6,0.9s-0.1,0.1-0.2,0c-0.3-0.9-1.5-1.1-2.3-0.6
		c0,0.5,0.6,0.8,0.9,0.8c0.2,0,0.4-0.2,0.4-0.4c0-0.1,0.1-0.1,0.1,0c0.1,0.3-0.4,1-1.1,0.6c-0.7,0.7-0.4,1.7-0.4,2
		c0.1,0.6-0.2,1.2-0.7,0.9H7.6C7.8,50.2,8.3,50.6,8.9,50.3z M13,46.5c-0.3,0.4-0.9,0.3-1-0.3C12.7,46.2,13,46.2,13,46.5z M35.1,48
		c-0.4,0-0.7-0.2-0.8-0.5c0-0.1-0.1-0.1-0.1,0c-0.2,0.6,0.3,0.9,0.7,0.9c0.5,0,0.8-0.4,1.5-0.5c0.3-0.1,0.5,0,0.5-0.1
		s-0.5-0.1-0.5-0.1C35.6,47.9,35.5,48,35.1,48z M42.2,49.8C42.2,49.7,42.2,49.7,42.2,49.8c-0.6,0.2-0.9-0.4-0.8-1
		c0.1-0.3,0.4-1.3-0.4-2c-0.7,0.4-1.2-0.3-1.1-0.6c0-0.1,0.1-0.1,0.1,0c0,0.2,0.2,0.4,0.4,0.4c0.3,0,0.8-0.3,0.9-0.8
		c-0.8-0.5-2-0.3-2.3,0.6c0,0.1-0.2,0.1-0.2,0s0-0.6,0.6-0.9c0.5-0.2,0.3-0.6,0.2-0.8c-0.1-0.1-0.2,0-0.1,0c0.2,0.3-0.2,0.5-0.8,0.4
		c-1.2-0.2-1.6,0.3-1.7,0.6c-0.3,0.1-1.3,0.6-1.3,0.9c0,0.1,0.1,0.2,0.2,0.3c0,0,0,0.4,0.3,0.7c1.3-0.8,1.6-0.1,1.5,0.5
		c0,0-0.2,0.2-1.1,0.2c0,0,0,0.3,0.1,0.4c0,0-0.2,0.2-0.1,0.5c0,0,0.4-0.3,1.2-0.3c0,0,0.5,0.7-1.3,1.1c-1.8,0.3-2.4,2.1-2.4,3
		c0,0,0,0.1,0.1,0.1c1.5-0.3,2.1,1.2,4,1.1c-0.2-0.4,0-0.9,0-0.9c0.1,0.4,0.5,0.7,0.8,0.8c0.7-0.2,1.1-0.5,1.2-0.7
		c0,0-0.7-0.6-0.2-1.7c0,0,0.5,0.7,1.4,0.3c0.1,0,0.1-0.1,0-0.1c-1.3-0.4-0.4-1.5-0.4-1.6C41.7,50.6,42.2,50.2,42.2,49.8z
		 M38.1,46.2c-0.1,0.6-0.7,0.7-1,0.3C37.1,46.2,37.4,46.2,38.1,46.2z M24.7,35.5c0,0.2,0.1,0.3,0.1,0.4c0.1,0.2,0.1,0.2,0,0.3
		s-0.1,0.1-0.3,0c-0.1-0.1-0.2-0.1-0.4-0.1c-0.3,0-0.4,0.2-0.4,0.3c0,0.2,0.1,0.3,0.4,0.3c0.2,0,0.3-0.1,0.4-0.1
		c0.2-0.1,0.2-0.1,0.3,0c0.1,0.1,0,0.6-0.1,1c-0.5,0.1-0.7,0.5-0.7,0.7c0,0.5,0.6,0.9,0.9,1c0.3-0.2,0.9-0.5,0.9-1
		c0-0.2-0.2-0.6-0.7-0.7c-0.1-0.4-0.1-1-0.1-1c0.1-0.1,0.1-0.1,0.3,0c0.1,0.1,0.2,0.1,0.4,0.1c0.3,0,0.4-0.2,0.4-0.3
		c0-0.2-0.1-0.3-0.4-0.3c-0.2,0-0.3,0.1-0.4,0.1c-0.2,0.1-0.2,0.1-0.3,0c-0.1-0.1-0.1-0.1,0-0.3c0.1-0.1,0.1-0.2,0.1-0.4
		c0-0.3-0.2-0.4-0.3-0.4C24.9,35.1,24.7,35.2,24.7,35.5z M25,39.6c-0.4,0-0.7,0.3-0.7,0.7S24.6,41,25,41c0.4,0,0.7-0.3,0.7-0.7
		S25.4,39.6,25,39.6z M25,46c2.7,0,4.2,0.5,4.2,0.5c0-1.3,0-2.1,0.8-2c-0.4-1.1,1.4-1.6,1.4-3.1c0-1-0.7-1.1-0.9-1.1
		c-0.6,0-0.5,0.4-1,0.4c-0.1,0-0.1,0-0.1,0c0,0.2,0.1,0.5,0.4,0.5s0.3-0.3,0.6-0.3c0.1,0,0.2,0.1,0.2,0.4c0,0.6-0.4,1.3-0.9,1.9
		C29.6,43,29.4,43,29.3,43c-0.3,0-0.5,0.3-0.5,0.7c0,0.1,0,0.2,0.1,0.4c-0.2,0.1-0.3,0.1-0.4,0.1c-0.2,0-0.5-0.1-0.5-0.6
		c0-1.1,1.4-2,1.4-3.4c0-0.6-0.4-1.3-1.3-1.3c-1,0-0.8,0.9-1.6,0.9h-0.1c0,0.1,0.1,0.5,0.6,0.5s0.6-0.8,1-0.8c0.2,0,0.4,0.1,0.4,0.6
		c0,0.4-0.2,1.1-0.5,1.8c-0.1-0.1-0.3-0.2-0.4-0.2c-0.4,0-0.6,0.3-0.6,0.8c0,0.3,0.1,0.5,0.3,0.7c-0.2,0.3-0.4,0.5-0.7,0.5
		c-0.6,0-0.8-0.3-0.8-0.7s0.7-0.5,0.7-1.1c0-0.4-0.3-0.6-0.5-0.6c-0.3,0-0.4,0.2-0.4,0.2s-0.2-0.2-0.4-0.2c-0.3,0-0.5,0.2-0.5,0.6
		c0,0.6,0.7,0.7,0.7,1.1c0,0.4-0.3,0.7-0.8,0.7c-0.3,0-0.5-0.2-0.7-0.5c0.2-0.2,0.3-0.4,0.3-0.7c0-0.4-0.3-0.8-0.6-0.8
		c-0.2,0-0.3,0.1-0.4,0.2c-0.3-0.7-0.5-1.3-0.5-1.8s0.2-0.6,0.4-0.6c0.4,0,0.5,0.8,1,0.8c0.4,0,0.6-0.5,0.6-0.5s0,0-0.1,0
		c-0.8,0-0.7-0.9-1.6-0.9s-1.3,0.6-1.3,1.3c0,1.4,1.4,2.3,1.4,3.4c0,0.5-0.3,0.6-0.5,0.6c-0.1,0-0.3-0.1-0.4-0.1
		c0-0.1,0.1-0.2,0.1-0.4c0-0.4-0.3-0.7-0.5-0.7s-0.3,0.1-0.4,0.2c-0.5-0.5-0.9-1.2-0.9-1.9c0-0.3,0.1-0.4,0.2-0.4
		c0.2,0,0.2,0.3,0.6,0.3c0.2,0,0.4-0.3,0.4-0.5h-0.1c-0.5,0-0.4-0.4-1-0.4c-0.2,0-0.9,0.1-0.9,1.1c0,1.5,1.8,1.9,1.4,3.1
		c0.8-0.1,0.8,0.6,0.8,2C20.9,46.5,22.4,46,25,46z M20.1,48c-0.7,0.2-1.2,0.3-1.5,0.4c0-0.3,0.1-0.6,0.4-0.7v-0.1
		c-0.6-0.4-1,0.4-1,0.4c-0.2,0-0.6,0.1-0.6,0.4c0,0.9-2.1,1.4-2.6,1.5c0.9,0.3,1.2,1.4,1.2,1.4c0.6-0.6,1.4-1.2,1.5-1.2
		c0.2,0,0.2,0.2,0.2,0.3c0,0,0,0.1,0.1,0c0.3-0.5,0.2-0.6,0.1-0.7c0-0.1,0-0.5,0.5-0.5v6.2h-0.2c-0.1,0-1-0.7-2.1-1.5
		c-1-0.7-1.6-0.3-2.8,0.4c-1.5,0.8-3.1,0.1-3.1,0.1c-1.3,1-1.8,3.7-1.8,3.7c-0.3,0.1-0.7,0.2-1.1,0.2c-1,0-1.2-0.6-1.2-1
		c0-1.6,2-2.2,2-3.8c0-0.4-0.2-1.9-2.1-1.9c-0.2,0-1.7,0-1.7,0c-0.7,0-0.9-0.5-1-0.7c0-0.1-0.1,0-0.1,0c0.1,0.1-0.1,0.3-0.1,0.7
		c0,0.6,0.4,1,1.1,1c0.3,0,0.6-0.1,0.7-0.1s0.1,0,0.1,0.1c-0.3,0.4-0.3,1-0.2,1.2h0.1c0.2-0.7,0.8-1.3,1.6-1.3c1,0,1,0.9,1,1.1
		c0,1.3-2.2,2.2-2.2,3.9c0,1.8,1.9,2.1,2.9,1.9c-0.1,1.8-2.1,2.4-2.1,1.1c0-0.1,0-0.1-0.1,0c-0.3,0.6-0.2,1.2,0.6,1.3
		c0.1,0,0,0,0,0.1c-0.8,0.5-0.4,2.4-0.3,3c0.1,0.8-0.8,0.7-0.8,0.7s-0.1,0,0,0.1C6.2,66.4,7,65.8,7,65.8c0.5,0.2,0.2,0.6-0.2,0.9
		c-0.1,0-0.1,0.1,0,0.1s0.9,0.1,1.1-0.6c0.4,0.4,0.9,0.3,1,0.2c0.2-0.1,0.9-0.4,1,0.5c0,0.1,0,0,0.1,0c0.6-0.7,0-1.2-0.4-1.3
		c0,0,0.5-0.4,0.9,0.1h0.1c0-0.9-0.7-1-1.2-0.6c0-0.1-0.2-0.6,0.6-0.6c0,0,0.1,0,0-0.1c-0.6-0.6-1.1-0.1-1.2,0.1
		c-0.3,0.3-0.9,0.2-1,0.2c0.2-3.3,3.1-2.1,3.5-3.7c0-0.1,0.1-0.1,0.1,0c0.1,0.4,1.1,0.4,1.3-0.3c0,0,0-0.1,0,0
		c-0.8,0.8-2.7-1.8-0.1-3.9c2.2-1.8,4.2-0.8,4.9-0.2c0,0.3-0.1,0.3-0.2,0.4c0,0,0,0,0,0.1c0.2,0.1,0.5,0.1,0.6-0.1
		c0.5,0.3,0.1,0.7-0.1,0.9V58c0.4,0.1,0.8-0.4,0.8-0.6h0.1v1.9c0,2.7,3.1,3,6.4,5.3c3.4-2.3,6.4-2.6,6.4-5.3v-1.9h0.1
		c0,0.3,0.4,0.7,0.8,0.6c0,0,0.1,0,0-0.1c-0.2-0.1-0.6-0.5-0.1-0.9c0.1,0.2,0.4,0.2,0.6,0.1c0.1,0,0-0.1,0-0.1
		c-0.1,0-0.3-0.1-0.2-0.4c0.7-0.6,2.7-1.6,4.9,0.2c2.6,2.1,0.7,4.7-0.1,3.9l0,0c0.2,0.8,1.2,0.7,1.3,0.3c0,0,0-0.1,0.1,0
		c0.4,1.6,3.3,0.4,3.5,3.7c-0.1,0-0.7,0.1-1-0.2c-0.1-0.1-0.6-0.7-1.2-0.1v0.1c0.8,0,0.6,0.5,0.6,0.6c-0.5-0.4-1.3-0.3-1.2,0.6
		c0,0.1,0,0.1,0.1,0c0.4-0.5,0.9-0.2,0.9-0.1c-0.4,0.1-1,0.5-0.4,1.3c0,0,0.1,0.1,0.1,0c0.1-0.9,0.9-0.6,1-0.5s0.7,0.2,1-0.2
		c0.1,0.7,1,0.6,1.1,0.6s0.1,0,0-0.1c-0.4-0.2-0.7-0.7-0.2-0.9c0,0,0.7,0.6,1.3-0.1c0.1-0.1,0-0.1,0-0.1c-0.1,0-0.9,0.1-0.8-0.7
		c0-0.6,0.5-2.5-0.3-3c0,0-0.1-0.1,0-0.1c0.8-0.2,0.9-0.7,0.6-1.3c0-0.1-0.1-0.1-0.1,0c-0.1,1.3-2.1,0.7-2.1-1.1
		c1.1,0.3,2.9-0.1,2.9-1.9c0-1.7-2.2-2.7-2.2-3.9c0-0.2,0-1.1,1-1.1c0.8,0,1.5,0.6,1.6,1.3c0,0,0,0,0.1,0c0.1-0.2,0.1-0.8-0.2-1.2
		c0,0,0-0.1,0.1-0.1c0.1,0.1,0.4,0.1,0.7,0.1c0.7,0,1.1-0.4,1.1-1c0-0.4-0.1-0.6-0.1-0.7s0-0.1-0.1,0c-0.1,0.2-0.3,0.7-1,0.7
		c0,0-1.4,0-1.7,0c-1.9,0-2.1,1.5-2.1,1.9c0,1.5,2,2.2,2,3.8c0,0.4-0.2,1-1.2,1c-0.4,0-0.9-0.1-1.1-0.2c0,0-0.5-2.8-1.8-3.7
		c0,0-1.6,0.8-3.1-0.1c-1.2-0.6-1.7-1.1-2.8-0.4c-1,0.7-1.9,1.5-2.1,1.5h-0.2v-6.2c0.5-0.1,0.5,0.4,0.5,0.5c0,0.1-0.2,0.3,0.1,0.7
		h0.1c0-0.1,0.1-0.3,0.2-0.3c0.2,0,0.9,0.6,1.5,1.2c0,0,0.4-1.1,1.2-1.4c-0.5-0.1-2.6-0.6-2.6-1.5c0-0.3-0.3-0.4-0.6-0.4
		c0,0-0.4-0.9-1-0.4v0.1c0.3,0.1,0.4,0.4,0.4,0.7c-0.6-0.2-3.3-0.9-6.4-0.9c-1.5,0-2.9,0.2-4,0.4V50h-0.9L20.1,48L20.1,48
		 M14.4,69.9c-0.2-0.1-0.4-0.2-0.4-0.5v-1.3c-0.4-0.1-1.4-0.5-3.5-0.5c-1.7,0-2.3,0.4-2.3,0.5l-0.5,2.5c0,0,0.7-0.6,3.2-0.5
		c3,0.2,6.2,2,6.2,0.1v-1.1C14.7,69.1,14.4,69.8,14.4,69.9z M33,69.1v1.1c0,1.9,3.1,0.1,6.2-0.1c2.5-0.2,3.2,0.5,3.2,0.5l-0.5-2.5
		c0-0.1-0.6-0.5-2.3-0.5c-2.1,0-3.1,0.4-3.5,0.5v1.3c0,0.3-0.2,0.5-0.4,0.5C35.7,69.8,35.3,69.1,33,69.1z M25,67.9
		c4.9,0,9.8,0.3,10.5,1c0.1,0.1,0.1,0,0.1,0v-2.6c0-0.8-5.1-1.2-10.5-1.2s-10.5,0.4-10.5,1.2v2.6c0,0,0,0.1,0.1,0
		C15.2,68.2,20.2,67.9,25,67.9z M20.7,55.8l-0.5-0.1v0.1l-0.6-0.3c0,0,0.4,0,0.5,0c0,0,0.1,0,0-0.1c-0.2-0.2-0.4-0.4-0.4-0.4
		s0.2,0.1,0.6,0.2c0,0,0.1,0,0,0c-0.2-0.2-0.4-0.6-0.4-0.6s0.5,0.3,0.6,0.4c0,0,0.1,0,0,0c-0.1-0.3-0.3-0.6-0.3-0.6l0.5,0.5l0,0
		c0-0.2-0.1-0.6-0.1-0.6l0.4,0.5c0,0,0,0,0.1,0c0-0.1,0-0.6,0-0.6s0.2,0.4,0.2,0.5c0,0,0,0,0.1,0c0-0.1,0.2-0.5,0.2-0.5v0.6h-0.1
		l-0.1,0.7c0.7-0.2,1.7-1.4,2.4-1.4c0.8,0,1.1,1,2.7,0.5c0.4,0.6,0.5,1.1,0.7,1.8c0.6,0.6,1.4,0.4,1.4-0.2c0-0.8-0.9-1-0.9-1.8
		c0-0.4,0.3-0.9,1-0.9c0.4,0,0.9,0.2,1.2,0.2c0.4,0,0.5-0.3,0.5-0.4s0.1-0.1,0.1,0s0,0.2,0,0.4c0,0.5-0.8,0.6-0.9,0.5c0,0-0.1,0,0,0
		c0.1,0.1,0.1,0.4,0,0.6l0,0c-0.1-0.4-0.5-0.8-0.9-0.8c-0.1,0-0.4,0.1-0.4,0.4c0,0.5,1,0.9,1,1.9s-1,1.3-2,1c0,1,1.5,1.5,1.5,0.9
		l0,0c0.2,0.3,0.1,0.5-0.2,0.6c0.3,0.1,0.3,0.6,0.4,0.9c0.1,0.5,0.6,0.2,0.6,0.2l0,0c-0.2,0.5-0.7,0.3-0.7,0.3
		c-0.3,0.2,0.1,0.3,0.3,0.4l0,0c-0.2,0.1-0.5,0.2-0.7-0.1c-0.1,0.3-0.4,0.3-0.5,0.3c-0.2,0-0.3,0.2-0.3,0.4l0,0
		c-0.4-0.3-0.2-0.6,0-0.7c0,0-0.3-0.1-0.5,0.2l0,0c-0.2-0.5,0.2-0.7,0.5-0.5c0-0.1-0.2-0.3-0.6-0.2l0,0c0.1-0.2,0.3-0.4,0.6-0.2
		c0.2,0.1,0.5-0.1,0.5-0.1c-0.6-1.3-1.9-0.2-2.2-1.2l0,0c-0.1,0.2-0.6,0.2-0.7-0.2l0,0c0.1,0.1,0.3,0.2,0.5-0.2
		c0.1-0.2,0.2-0.5,0.2-0.7c0-0.8-0.8-2.1-2-2.1c-0.8,0-1.6,0.3-2.2,0.7l0.6,0.1c-0.1,0.6-0.6,0.9-1.1,0.8l0.1-0.7
		c-0.1,0-0.3,0.1-0.4,0.3l0,0c-0.1-0.4,0.2-0.6,0.3-0.6l0,0c-0.3,0-0.4,0.2-0.5,0.3l0,0C20.6,56.1,20.6,55.9,20.7,55.8z M22.4,60.3
		c-0.2,0.3-0.4,0-0.7,0c-0.3,0-0.3,0.2-0.3,0.3l0,0c-0.3-0.4,0-0.6,0.2-0.7c0,0-0.3-0.2-0.5,0l0,0c0-0.5,0.4-0.6,0.7-0.3
		c0-0.2-0.1-0.3-0.3-0.3l0,0c0.1-0.1,0.2-0.1,0.3-0.1c0.3,0,0.3,0.4,0.5,0.4c0.3,0,0.7-0.4,0.7-0.4s-0.3-0.8-0.2-1.2l0,0
		c-0.1,0.1-0.5,0.1-0.5-0.4l0,0c0.2,0.2,0.4,0,0.5-0.2c0.1-0.1,0.8-1.2,1.8-1.2c0.2,0,0.5,0.1,0.7,0.3c-0.3,0.4,0,0.8,0.2,0.7l0,0
		c-1.3,0.5-1.8,0.7-1.8,1.7c0,0.6,0.2,0.9,0.5,0.8l0,0c-0.1,0.1-0.3,0.2-0.4,0.2c-0.3,0-0.3-0.1-0.4-0.1s-0.6,0.3-0.6,0.5
		c0,0.1,0.1,0.2,0.2,0.3l0,0C22.9,60.6,22.5,60.6,22.4,60.3z M25.7,50c-0.4,0-0.6,0.1-0.6,0.2C25.3,50.4,25.5,50.4,25.7,50z
		 M24.3,51c0.3-0.1,0.6,0,0.6,0v0.1c-0.6,0.1-0.6,0.3-1,0.3c-0.2,0-0.5-0.2-0.4-0.6c0,0,0,0,0.1,0C23.6,50.9,23.8,51.1,24.3,51z
		 M16.7,63.8c0.4,0.5,0.8,0,1.3,0c0.2,0,0.5,0.1,0.6,0.6l0,0c0.5-0.8-0.1-1.2-0.4-1.2c0.1-0.1,0.6-0.4,1,0.1h0.1
		c0-0.9-0.7-1-1.2-0.6c-0.1-0.4,0.2-0.6,0.5-0.6c0,0,0.1,0,0-0.1c-0.6-0.7-1.1,0.2-1.2,0.3c-0.3,0.3-1.2-0.3-1.5-0.7
		c0,0,0.8-0.8,0.8-1.6v-0.1l0,0c0.1,0,0.2,0.1,0.3,0.1c0.2,0,0.5-0.1,0.5-0.7l0,0c-0.1,0.1-0.2,0.2-0.3,0.2c-0.6,0-2-2.2-3.6-2.2
		c-0.4,0-1.2,0.3-1.6,0.7c0.2,0.1,0.2,0.3,0.2,0.5c0,0.3-0.2,0.4-0.5,0.5c0,0,0,0,0,0.1c0.8,0.3,2.3,0.9,2.6,1.2
		c0.4,0.3,0.3,1,0.1,1.9s-0.7,0.7-0.9,0.7l0,0c0.2,0.3,0.5,0.4,0.7,0.4c0.4,0,0.6-0.3,0.8-0.3c0.4,0,1.1,0.5,1.1,0.9
		c0,0.2-0.2,0.4-0.4,0.6l0,0C15.9,64.4,16.6,64.5,16.7,63.8z M34.4,64.4L34.4,64.4C34.2,64.2,34,64,34,63.8c0-0.4,0.8-0.9,1.1-0.9
		c0.2,0,0.4,0.3,0.8,0.3c0.2,0,0.5-0.1,0.7-0.4l0,0c-0.2,0-0.6,0.1-0.9-0.7c-0.2-0.9-0.3-1.5,0.1-1.9c0.3-0.3,1.8-0.8,2.6-1.2
		c0,0,0,0,0-0.1c-0.2-0.1-0.4-0.2-0.5-0.5c0-0.2,0-0.4,0.2-0.5c-0.4-0.4-1.2-0.7-1.6-0.7c-1.6,0-2.9,2.2-3.6,2.2
		c-0.1,0-0.2,0-0.3-0.2l0,0c0,0.7,0.3,0.7,0.5,0.7c0.1,0,0.2,0,0.3-0.1l0,0v0.1c0,0.8,0.8,1.6,0.8,1.6c-0.4,0.4-1.3,1-1.5,0.7
		c-0.1-0.1-0.6-1-1.2-0.3V62c0.4,0,0.6,0.2,0.5,0.6c-0.4-0.3-1.1-0.3-1.1,0.7c0,0,0,0,0.1,0c0.3-0.5,0.9-0.2,1-0.1
		c-0.4,0.1-1,0.5-0.4,1.2l0,0c0.1-0.5,0.4-0.6,0.6-0.6c0.5,0,0.9,0.5,1.3,0C33.5,64.5,34.2,64.4,34.4,64.4z M21.4,51.9
		c-0.1,0.1-0.2,0-0.3,0l0,0c0,0.1,0.2,0.4,0.4,0.4c0.1,0,0.3-0.1,0.3-0.1s0.9,0.3,1.4,0.4c-0.2,0.2-0.3,0.5-0.3,0.8
		c-0.4-0.2-1.9-1-1.9-1L20.5,53c-0.1,0.1-0.4-0.2-0.4-0.3l0.4-0.5c-0.1-0.1-0.4,0-0.5,0l0,0c0-0.1,0.2-0.4,0.7-0.3
		c0-0.3-0.4-0.2-0.5-0.2l0,0c0.1-0.1,0.4-0.4,0.8-0.2l0.2-0.2L20.9,51l0.2-0.3l0.2,0.3l1.7-2.4c0-0.1,0.4-0.2,0.5-0.2
		c0,0.1,0,0.5,0,0.5l-1.7,2.4l0.4,0.1L22,51.7l-0.4-0.2L21.4,51.9z M27.5,51.5c0,0.2,0.1,0.5,0.4,0.4l0,0c0,0.2-0.5,0.5-0.7,0.2
		c-0.2,0.4-0.1,0.7,0.2,0.9c0,0,0,0,0,0.1c-0.1,0.2-0.4,0.2-0.6-0.2c-0.3,0.2-0.3,0.7-0.1,0.9c0,0-0.9,0.5-1.6,0.1
		c-0.5-0.2-0.9-0.6-1.6-0.5c0.1-0.9,0.6-1.2,1.4-1.3c0.7-0.1,0.8-0.4,0.7-0.7c-0.2-0.1-0.7,0.2-0.7,0.2c-0.1-0.1,0-0.3,0-0.3
		c0-0.1-0.1-0.2-0.1-0.2c0.5,0,0.6-0.1,0.6-0.1c0.1-0.5-0.4-0.6-0.8-0.3c-0.2-0.2-0.2-0.4-0.2-0.4c-0.1,0-0.1-0.1-0.1-0.1
		c0-0.1,0.6-0.4,0.7-0.5c0-0.2,0.2-0.4,0.8-0.3c0.1-0.2,0-0.7-0.1-0.9c0,0,0-0.1,0.1,0c0.2,0.1,0.4,0.6,0.6,0.6c0,0,0.7-0.4,0.7-0.3
		l0.1,0.8c0.1,0.1,0.6,0,0.8,0.1c0.1,0,0.1,0.1,0,0.1c-0.2,0-0.7,0.3-0.8,0.4C27.7,50.6,27.5,51.3,27.5,51.5z"/>
</g>
<g id="Isolatiemodus">
	<g>
		<path d="M61.9,49.8c0.5-0.1,0.9-0.5,0.9-1.1v-7.6l-1-0.3v-0.5c1-0.2,1.6-0.2,3.1-0.2c2.2,0,3.3,0.8,3.3,2.3c0,1.2-1.1,2.3-2.3,2.5
			l0,0c1.6,0,2.7,0.9,2.7,2.3c0,1.7-1.6,3-4,3c-1.1,0-2,0-2.8-0.2v-0.2H61.9z M66.8,42.5c0-1-0.7-1.6-2-1.6c-0.2,0-0.4,0-0.7,0v3.7
			C65.8,44.7,66.8,43.9,66.8,42.5z M64.9,49.4c1.3,0,2.3-0.8,2.3-2c0-1.3-0.9-2-2.6-2h-0.5v3.9C64.4,49.4,64.6,49.4,64.9,49.4z"/>
		<path d="M73.3,42.6c1.7,0,2.7,1.1,2.7,2.9c0,0.3,0,0.6,0,1h-4.6c0,1.7,1,2.7,2.3,2.7c0.8,0,1.6-0.3,2.2-0.7c0,0.1,0.1,0.2,0.1,0.4
			c0,0.7-1,1.3-2.7,1.3c-1.8,0-3.2-1.4-3.2-3.6C70.1,44,71.7,42.6,73.3,42.6z M74.8,45.7c0-1.5-0.7-2.2-1.6-2.2s-1.8,1-1.8,2.2H74.8
			z"/>
		<path d="M77.3,49.8c0.4-0.2,0.8-0.5,0.8-0.8v-9l-1-0.4v-0.3c0.7-0.2,1.4-0.3,1.9-0.3h0.5l-0.1,0.9v9.6l0.9,0.2V50
			c-0.5,0.2-1,0.3-1.8,0.3c-0.4,0-0.8,0-1.2-0.1C77.3,50.2,77.3,49.8,77.3,49.8z"/>
		<path d="M85.4,46v-0.4c0-1.7-0.4-2-1.4-2c-0.9,0-1.7,0.4-2.3,1c0-0.2,0-0.3,0-0.5c0-1,0.7-1.6,2.5-1.6c1.6,0,2.5,0.8,2.5,2.1
			c0,0.3,0,1.1-0.1,1.6v2.5c0.1,0.3,0.3,0.6,0.6,0.8c-0.2,0.3-0.7,0.6-1.1,0.8c-0.3-0.2-0.5-0.4-0.7-0.8c-0.4,0.5-1.2,0.8-2.1,0.8
			c-1.2,0-2-0.7-2-1.7C81.4,47.2,82.9,46,85.4,46z M83.9,49.4c0.5,0,1.1-0.2,1.5-0.4v-2.2c-1.8,0-2.7,0.7-2.7,1.6
			C82.7,49,83.1,49.4,83.9,49.4z"/>
		<path d="M88.5,48.4c0.7,0.7,1.4,1,2.2,1c0.9,0,1.3-0.4,1.3-1c0-0.5-0.3-0.9-1.3-1.3l-0.8-0.3c-0.9-0.4-1.4-1-1.4-1.9
			c0-1.2,1.1-2.3,2.7-2.3c1.2,0,1.7,0.4,1.7,1c0,0.2,0,0.4-0.1,0.7c-0.5-0.3-1.2-0.6-1.8-0.6c-1,0-1.5,0.4-1.5,1s0.3,0.9,1.2,1.2
			l0.8,0.3c1.1,0.4,1.5,1,1.5,1.9c0,1.2-1.1,2.3-2.9,2.3c-1.4,0-2-0.4-2-1.3C88.4,48.8,88.4,48.6,88.5,48.4z"/>
		<path d="M95.1,45.8v-2.1h-0.9v-0.4l1.7-1.7l0.5-0.1l-0.1,1.4h2l-0.1,0.8h-2v2c0,0.7,0,1.2,0,1.8c0,1.3,0.4,1.7,0.9,1.7
			s0.8-0.2,1.1-0.4l0.2,0.1c0.1,0.9-0.4,1.4-1.5,1.4c-1.2,0-1.8-0.7-1.8-2.2C95.1,47.4,95.1,46.5,95.1,45.8z"/>
		<path d="M99.4,49.8c0.4-0.2,0.8-0.5,0.8-0.8v-5.2l-1-0.4v-0.3c0.7-0.2,1.4-0.3,1.8-0.3h0.5l-0.1,0.8v5.9l0.9,0.2V50
			c-0.5,0.2-1,0.3-1.8,0.3c-0.4,0-0.8,0-1.2-0.1L99.4,49.8L99.4,49.8z M100,40.4c0-0.5,0.3-0.9,0.9-0.9c0.4,0,0.8,0.3,0.8,0.8
			s-0.4,1-0.9,1C100.4,41.3,100,40.9,100,40.4z"/>
		<path d="M103.7,49.8c0.4-0.2,0.8-0.5,0.8-0.8v-5.2l-1-0.4v-0.3c0.7-0.2,1.4-0.3,1.9-0.3h0.4v0.8c0.5-0.5,1.4-0.9,2.3-0.9
			c1.3,0,2.2,0.8,2.2,2.4v4.3l0.8,0.2v0.3c-0.4,0.2-1,0.3-1.6,0.3c-0.3,0-0.7,0-1-0.1v-0.3c0.4-0.2,0.6-0.5,0.6-1v-3
			c0-1.5-0.6-2.1-1.6-2.1c-0.6,0-1.3,0.2-1.6,0.5v5.2l0.9,0.2v0.3c-0.5,0.2-1,0.3-1.8,0.3c-0.4,0-0.8,0-1.2-0.1v-0.3H103.7z"/>
		<path d="M113.6,47.8L113.6,47.8c-0.7-0.3-1.4-1.1-1.4-2.2c0-1.7,1.4-3.1,3.1-3.1c0.6,0,1.4,0.3,1.7,0.5c0.3-0.3,0.9-0.5,1.4-0.5
			c0.3,0,0.5,0,0.7,0.1l-0.1,1c-0.5-0.1-1.1-0.2-1.7-0.2l0,0c0.5,0.4,0.9,1.1,0.9,1.7c0,1.8-1.5,3-3.1,3c-0.3,0-0.7-0.1-1-0.2
			c-0.2,0.1-0.5,0.5-0.5,0.7c0,0.5,0.4,0.7,1,0.7h2.2c1.3,0,2,0.6,2,1.7c0,1.5-1.6,2.7-3.8,2.7c-2,0-3-0.8-3-1.8
			c0-0.8,0.6-1.5,1.5-1.7l0,0c-0.6-0.2-0.9-0.6-0.9-1.2C112.5,48.6,113,48,113.6,47.8z M115.1,53.1c1.5,0,2.5-0.7,2.5-1.5
			c0-0.6-0.4-0.9-1.1-0.9H114c-0.5,0.2-0.8,0.7-0.8,1.2C113.1,52.5,113.8,53.1,115.1,53.1z M116.7,45.3c0-1.3-0.7-1.9-1.5-1.9
			c-0.9,0-1.6,0.8-1.6,2.2c0,1.3,0.7,1.9,1.5,1.9C116,47.5,116.7,46.8,116.7,45.3z"/>
		<path d="M123.3,42.6c0.4,0,0.8,0,1.1,0.1V40l-1.1-0.4v-0.3c0.7-0.2,1.5-0.3,1.9-0.3h0.5l-0.1,0.9v8.9c0.1,0.3,0.3,0.6,0.6,0.9
			c-0.3,0.3-0.7,0.5-1.1,0.7c-0.3-0.2-0.6-0.6-0.7-0.9c-0.5,0.5-1.3,0.9-2,0.9c-1.6,0-2.8-1.3-2.8-3.4
			C119.6,44.1,121.3,42.6,123.3,42.6z M124.4,48.8v-5.1c-0.3-0.1-0.7-0.2-1.1-0.2c-1.3,0-2.3,1-2.3,3.2c0,1.7,0.9,2.6,1.9,2.6
			C123.4,49.3,124,49.1,124.4,48.8z"/>
		<path d="M127.7,49.8c0.4-0.2,0.8-0.5,0.8-0.8v-5.2l-1-0.4v-0.3c0.7-0.2,1.4-0.3,1.8-0.3h0.5l-0.1,0.8v5.9l0.9,0.2V50
			c-0.5,0.2-1,0.3-1.8,0.3c-0.4,0-0.8,0-1.2-0.1v-0.4H127.7z M128.4,40.4c0-0.5,0.3-0.9,0.9-0.9c0.4,0,0.8,0.3,0.8,0.8s-0.4,1-0.9,1
			C128.7,41.3,128.4,40.9,128.4,40.4z"/>
		<path d="M135.1,42.6c1.7,0,2.7,1.1,2.7,2.9c0,0.3,0,0.6,0,1h-4.6c0,1.7,1,2.7,2.3,2.7c0.8,0,1.6-0.3,2.2-0.7
			c0,0.1,0.1,0.2,0.1,0.4c0,0.7-1,1.3-2.7,1.3c-1.8,0-3.2-1.4-3.2-3.6C131.9,44,133.5,42.6,135.1,42.6z M136.6,45.7
			c0-1.5-0.7-2.2-1.6-2.2c-0.9,0-1.8,1-1.8,2.2H136.6z"/>
		<path d="M139.1,49.8c0.4-0.2,0.8-0.5,0.8-0.8v-5.2l-1-0.4v-0.3c0.7-0.2,1.4-0.3,1.9-0.3h0.4v0.8c0.5-0.5,1.4-0.9,2.3-0.9
			c1.3,0,2.2,0.8,2.2,2.4v4.3l0.8,0.2v0.3c-0.4,0.2-1,0.3-1.6,0.3c-0.3,0-0.7,0-1-0.1v-0.3c0.4-0.2,0.6-0.5,0.6-1v-3
			c0-1.5-0.6-2.1-1.6-2.1c-0.6,0-1.3,0.2-1.6,0.5v5.2l0.9,0.2v0.3c-0.5,0.2-1,0.3-1.8,0.3c-0.4,0-0.8,0-1.2-0.1L139.1,49.8
			L139.1,49.8z"/>
		<path d="M147.7,48.4c0.7,0.7,1.4,1,2.2,1c0.9,0,1.3-0.4,1.3-1c0-0.5-0.3-0.9-1.3-1.3l-0.8-0.3c-0.9-0.4-1.4-1-1.4-1.9
			c0-1.2,1.1-2.3,2.7-2.3c1.2,0,1.7,0.4,1.7,1c0,0.2,0,0.4-0.1,0.7c-0.5-0.3-1.2-0.6-1.8-0.6c-1,0-1.5,0.4-1.5,1s0.3,0.9,1.2,1.2
			l0.8,0.3c1.1,0.4,1.5,1,1.5,1.9c0,1.2-1.1,2.3-2.9,2.3c-1.4,0-2-0.4-2-1.3C147.5,48.8,147.6,48.6,147.7,48.4z"/>
		<path d="M154.3,45.8v-2.1h-0.9v-0.4l1.7-1.7l0.5-0.1l-0.1,1.4h2l-0.1,0.8h-2v2c0,0.7,0,1.2,0,1.8c0,1.3,0.4,1.7,0.9,1.7
			s0.8-0.2,1.1-0.4l0.2,0.1c-0.1,0.9-0.6,1.4-1.7,1.4c-1.2,0-1.8-0.7-1.8-2.2C154.2,47.4,154.2,46.5,154.3,45.8z"/>
	</g>
	<g>
		<rect y="-14.7" class="st0" width="275" height="125"/>
	</g>
</g>
</svg>
