<?xml version="1.0" encoding="utf-8"?>
<!-- Generator: Adobe Illustrator 28.1.0, SVG Export Plug-In . SVG Version: 6.00 Build 0)  -->
<svg version="1.1" id="Laag_1" xmlns="http://www.w3.org/2000/svg" xmlns:xlink="http://www.w3.org/1999/xlink" x="0px" y="0px"
	 viewBox="0 0 614 177" style="enable-background:new 0 0 614 177;" xml:space="preserve">
<g>
	<path d="M7,0h113c3.9,0,7,3.1,7,7v32c0,3.9-3.1,7-7,7H7c-3.9,0-7-3.1-7-7V7C0,3.1,3.1,0,7,0z"/>
	<path d="M145,0h32c3.9,0,7,3.1,7,7v108c0,3.9-3.1,7-7,7h-32c-3.9,0-7-3.1-7-7V7C138,3.1,141.1,0,145,0z"/>
	<path d="M7,55h32c3.9,0,7,3.1,7,7v108c0,3.9-3.1,7-7,7H7c-3.9,0-7-3.1-7-7V62C0,58.1,3.1,55,7,55z"/>
	<path d="M64,131h113c3.9,0,7,3.1,7,7v32c0,3.9-3.1,7-7,7H64c-3.9,0-7-3.1-7-7v-32C57,134.1,60.1,131,64,131z"/>
</g>
<g>
	<path d="M222,0h114c3.9,0,7,3.1,7,7v32c0,3.9-3.1,7-7,7H222c-3.9,0-7-3.1-7-7V7C215,3.1,218.1,0,222,0z"/>
	<path d="M360,0h32c3.9,0,7,3.1,7,7v163c0,3.9-3.1,7-7,7h-32c-3.9,0-7-3.1-7-7V7C353,3.1,356.1,0,360,0z"/>
	<path d="M222,55h32c3.9,0,7,3.1,7,7v108c0,3.9-3.1,7-7,7h-32c-3.9,0-7-3.1-7-7V62C215,58.1,218.1,55,222,55z"/>
	<path d="M285,74h50c3.9,0,7,3.1,7,7v32c0,3.9-3.1,7-7,7h-50c-3.9,0-7-3.1-7-7V81C278,77.1,281.1,74,285,74z"/>
</g>
<g>
	<path d="M437,0h32c3.9,0,7,3.1,7,7v96c0,3.9-3.1,7-7,7h-32c-3.9,0-7-3.1-7-7V7C430,3.1,433.1,0,437,0z"/>
	<path d="M575,0h32c3.9,0,7,3.1,7,7v163c0,3.9-3.1,7-7,7h-32c-3.9,0-7-3.1-7-7V7C568,3.1,571.1,0,575,0z"/>
	<path d="M501,64h50c3.9,0,7,3.1,7,7v32c0,3.9-3.1,7-7,7h-50c-3.9,0-7-3.1-7-7V71C494,67.1,497.1,64,501,64z"/>
	<path d="M458,131h93c3.9,0,7,3.1,7,7v32c0,3.9-3.1,7-7,7h-93c-3.9,0-7-3.1-7-7v-32C451,134.1,454.1,131,458,131z"/>
</g>
</svg>
