<?xml version="1.0" encoding="utf-8"?>
<!-- Generator: Adobe Illustrator 28.1.0, SVG Export Plug-In . SVG Version: 6.00 Build 0)  -->
<svg version="1.1" id="Laag_1" xmlns="http://www.w3.org/2000/svg" xmlns:xlink="http://www.w3.org/1999/xlink" x="0px" y="0px"
	 viewBox="0 0 614 180.5" style="enable-background:new 0 0 614 180.5;" xml:space="preserve">
<g>
	<path d="M7,0h170c3.9,0,7,3.1,7,7v32c0,3.9-3.1,7-7,7H7c-3.9,0-7-3.1-7-7V7C0,3.1,3.1,0,7,0z"/>
	<path d="M7,55h32c3.9,0,7,3.1,7,7v108c0,3.9-3.1,7-7,7H7c-3.9,0-7-3.1-7-7V62C0,58.1,3.1,55,7,55z"/>
	<path d="M64,131h113c3.9,0,7,3.1,7,7v32c0,3.9-3.1,7-7,7H64c-3.9,0-7-3.1-7-7v-32C57,134.1,60.1,131,64,131z"/>
</g>
<g>
	<path d="M222,0h32c3.9,0,7,3.1,7,7v96c0,3.9-3.1,7-7,7h-32c-3.9,0-7-3.1-7-7V7C215,3.1,218.1,0,222,0z"/>
	<path d="M278,0h114c3.9,0,7,3.1,7,7v32c0,3.9-3.1,7-7,7H278c-3.9,0-7-3.1-7-7V7C271,3.1,274.1,0,278,0z"/>
	<path d="M282,65h50c3.9,0,7,3.1,7,7v32c0,3.9-3.1,7-7,7h-50c-3.9,0-7-3.1-7-7V72C275,68.1,278.1,65,282,65z"/>
	<path d="M360,65h32c3.9,0,7,3.1,7,7v98c0,3.9-3.1,7-7,7h-32c-3.9,0-7-3.1-7-7V72C353,68.1,356.1,65,360,65z"/>
	<path d="M222,131h114c3.9,0,7,3.1,7,7v32c0,3.9-3.1,7-7,7H222c-3.9,0-7-3.1-7-7v-32C215,134.1,218.1,131,222,131z"/>
</g>
<g>
	<path d="M437,0h32c3.9,0,7,3.1,7,7v96c0,3.9-3.1,7-7,7h-32c-3.9,0-7-3.1-7-7V7C430,3.1,433.1,0,437,0z"/>
	<path d="M493,0h114c3.9,0,7,3.1,7,7v32c0,3.9-3.1,7-7,7H493c-3.9,0-7-3.1-7-7V7C486,3.1,489.1,0,493,0z"/>
	<path d="M497,65h50c3.9,0,7,3.1,7,7v32c0,3.9-3.1,7-7,7h-50c-3.9,0-7-3.1-7-7V72C490,68.1,493.1,65,497,65z"/>
	<path d="M575,65h32c3.9,0,7,3.1,7,7v98c0,3.9-3.1,7-7,7h-32c-3.9,0-7-3.1-7-7V72C568,68.1,571.1,65,575,65z"/>
	<path d="M437,131h114c3.9,0,7,3.1,7,7v32c0,3.9-3.1,7-7,7H437c-3.9,0-7-3.1-7-7v-32C430,134.1,433.1,131,437,131z"/>
</g>
</svg>
